<?xml version="1.0" encoding="UTF-8" standalone="no"?>
<!-- Created with Inkscape (http://www.inkscape.org/) -->

<svg
   xmlns:dc="http://purl.org/dc/elements/1.1/"
   xmlns:cc="http://creativecommons.org/ns#"
   xmlns:rdf="http://www.w3.org/1999/02/22-rdf-syntax-ns#"
   xmlns:svg="http://www.w3.org/2000/svg"
   xmlns="http://www.w3.org/2000/svg"
   xmlns:sodipodi="http://sodipodi.sourceforge.net/DTD/sodipodi-0.dtd"
   xmlns:inkscape="http://www.inkscape.org/namespaces/inkscape"
   width="610mm"
   height="457mm"
   viewBox="0 0 610 457"
   version="1.1"
   id="svg8"
   inkscape:version="0.92.3 (2405546, 2018-03-11)"
   sodipodi:docname="Dreieck box v4 MDF3mm PMMA5mm ohne CAN.svg">
  <sodipodi:namedview
     id="base"
     pagecolor="#ffffff"
     bordercolor="#666666"
     borderopacity="1.0"
     inkscape:pageopacity="0.0"
     inkscape:pageshadow="2"
     inkscape:zoom="1"
     inkscape:cx="712.88803"
     inkscape:cy="216.7552"
     inkscape:document-units="mm"
     inkscape:current-layer="layer1"
     showgrid="false"
     inkscape:window-width="1920"
     inkscape:window-height="1137"
     inkscape:window-x="-8"
     inkscape:window-y="-8"
     inkscape:window-maximized="1"
     inkscape:snap-global="true"
     inkscape:snap-bbox="true"
     inkscape:snap-bbox-midpoints="true"
     inkscape:snap-bbox-edge-midpoints="true"
     inkscape:bbox-nodes="false"
     inkscape:bbox-paths="true"
     inkscape:snap-grids="true"
     inkscape:measure-start="263.187,654.062"
     inkscape:measure-end="330.75,624.875"
     showguides="true"
     inkscape:guide-bbox="true"
     inkscape:object-paths="true">
    <inkscape:grid
       type="xygrid"
       id="grid1256"
       units="px" />
  </sodipodi:namedview>
  <defs
     id="defs2" />
  <metadata
     id="metadata5">
    <rdf:RDF>
      <cc:Work
         rdf:about="">
        <dc:format>image/svg+xml</dc:format>
        <dc:type
           rdf:resource="http://purl.org/dc/dcmitype/StillImage" />
        <dc:title></dc:title>
      </cc:Work>
    </rdf:RDF>
  </metadata>
  <g
     inkscape:label="Ebene 1"
     inkscape:groupmode="layer"
     id="layer1"
     transform="translate(0,160)">
    <path
       id="path905-2-6"
       style="fill:none;stroke:#ff0000;stroke-width:0.1;stroke-opacity:1;stroke-miterlimit:4;stroke-dasharray:none"
       d="m 40.04464,217 v 5.56818 m 0,2.00086 v 9.13548 m 0,2.00086 v 9.13548 m 0,2.00086 v 9.1355 m 0,2.00087 v 9.13549 m 0,2.00085 v 9.1355 m 0,2.00085 v 9.1355 m 0,2.00086 v 5.56814 M 41.64106,217 v 5.56818 m 0,2.00086 v 9.13548 m 0,2.00086 v 9.13548 m 0,2.00086 v 9.1355 m 0,2.00087 v 9.13549 m 0,2.00085 v 9.1355 m 0,2.00085 v 9.1355 m 0,2.00086 v 5.56814 M 43.23748,217 v 5.56818 m 0,2.00086 v 9.13548 m 0,2.00086 v 9.13548 m 0,2.00086 v 9.1355 m 0,2.00087 v 9.13549 m 0,2.00085 v 9.1355 m 0,2.00085 v 9.1355 m 0,2.00086 v 5.56814 M 44.83391,217 v 5.56818 m 0,2.00086 v 9.13548 m 0,2.00086 v 9.13548 m 0,2.00086 v 9.1355 m 0,2.00087 v 9.13549 m 0,2.00085 v 9.1355 m 0,2.00085 v 9.1355 m 0,2.00086 v 5.56814 M 46.43033,217 v 5.56818 m 0,2.00086 v 9.13548 m 0,2.00086 v 9.13548 m 0,2.00086 v 9.1355 m 0,2.00087 v 9.13549 m 0,2.00085 v 9.1355 m 0,2.00085 v 9.1355 m 0,2.00086 v 5.56814 M 48.02675,217 v 5.56818 m 0,2.00086 v 9.13548 m 0,2.00086 v 9.13548 m 0,2.00086 v 9.1355 m 0,2.00087 v 9.13549 m 0,2.00085 v 9.1355 m 0,2.00085 v 9.1355 m 0,2.00086 v 5.56814 M 49.62317,217 v 5.56818 m 0,2.00086 v 9.13548 m 0,2.00086 v 9.13548 m 0,2.00086 v 9.1355 m 0,2.00087 v 9.13549 m 0,2.00085 v 9.1355 m 0,2.00085 v 9.1355 m 0,2.00086 v 5.56814 M 51.21959,217 v 5.56818 m 0,2.00086 v 9.13548 m 0,2.00086 v 9.13548 m 0,2.00086 v 9.1355 m 0,2.00087 v 9.13549 m 0,2.00085 v 9.1355 m 0,2.00085 v 9.1355 m 0,2.00086 v 5.56814 M 52.81602,217 v 5.56818 m 0,2.00086 v 9.13548 m 0,2.00086 v 9.13548 m 0,2.00086 v 9.1355 m 0,2.00087 v 9.13549 m 0,2.00085 v 9.1355 m 0,2.00085 v 9.1355 m 0,2.00086 v 5.56814 M 54.41244,217 v 5.56818 m 0,2.00086 v 9.13548 m 0,2.00086 v 9.13548 m 0,2.00086 v 9.1355 m 0,2.00087 v 9.13549 m 0,2.00085 v 9.1355 m 0,2.00085 v 9.1355 m 0,2.00086 v 5.56814 M 56.00886,217 v 5.56818 m 0,2.00086 v 9.13548 m 0,2.00086 v 9.13548 m 0,2.00086 v 9.1355 m 0,2.00087 v 9.13549 m 0,2.00085 v 9.1355 m 0,2.00085 v 9.1355 m 0,2.00086 v 5.56814 M 57.60528,217 v 5.56818 m 0,2.00086 v 9.13548 m 0,2.00086 v 9.13548 m 0,2.00086 v 9.1355 m 0,2.00087 v 9.13549 m 0,2.00085 v 9.1355 m 0,2.00085 v 9.1355 m 0,2.00086 v 5.56814 M 59.20171,217 v 5.56818 m 0,2.00086 v 9.13548 m 0,2.00086 v 9.13548 m 0,2.00086 v 9.1355 m 0,2.00087 v 9.13549 m 0,2.00085 v 9.1355 m 0,2.00085 v 9.1355 m 0,2.00086 v 5.56814 M 60.79814,217 v 5.56818 m 0,2.00086 v 9.13548 m 0,2.00086 v 9.13548 m 0,2.00086 v 9.1355 m 0,2.00087 v 9.13549 m 0,2.00085 v 9.1355 m 0,2.00085 v 9.1355 m 0,2.00086 v 5.56814 M 62.39456,217 v 5.56818 m 0,2.00086 v 9.13548 m 0,2.00086 v 9.13548 m 0,2.00086 v 9.1355 m 0,2.00087 v 9.13549 m 0,2.00085 v 9.1355 m 0,2.00085 v 9.1355 m 0,2.00086 v 5.56814 M 63.99098,217 v 5.56818 m 0,2.00086 v 9.13548 m 0,2.00086 v 9.13548 m 0,2.00086 v 9.1355 m 0,2.00087 v 9.13549 m 0,2.00085 v 9.1355 m 0,2.00085 v 9.1355 m 0,2.00086 v 5.56814 M 65.5874,217 v 5.56818 m 0,2.00086 v 9.13548 m 0,2.00086 v 9.13548 m 0,2.00086 v 9.1355 m 0,2.00087 v 9.13549 m 0,2.00085 v 9.1355 m 0,2.00085 v 9.1355 m 0,2.00086 v 5.56814 M 67.18383,217 v 5.56818 m 0,2.00086 v 9.13548 m 0,2.00086 v 9.13548 m 0,2.00086 v 9.1355 m 0,2.00087 v 9.13549 m 0,2.00085 v 9.1355 m 0,2.00085 v 9.1355 m 0,2.00086 v 5.56814 M 68.78025,217 v 5.56818 m 0,2.00086 v 9.13548 m 0,2.00086 v 9.13548 m 0,2.00086 v 9.1355 m 0,2.00087 v 9.13549 m 0,2.00085 v 9.1355 m 0,2.00085 v 9.1355 m 0,2.00086 v 5.56814 M 70.37667,217 v 5.56818 m 0,2.00086 v 9.13548 m 0,2.00086 v 9.13548 m 0,2.00086 v 9.1355 m 0,2.00087 v 9.13549 m 0,2.00085 v 9.1355 m 0,2.00085 v 9.1355 m 0,2.00086 v 5.56814 M 71.9731,217 v 5.56818 m 0,2.00086 v 9.13548 m 0,2.00086 v 9.13548 m 0,2.00086 v 9.1355 m 0,2.00087 v 9.13549 m 0,2.00085 v 9.1355 m 0,2.00085 v 9.1355 m 0,2.00086 v 5.56814 M 73.56951,217 v 5.56818 m 0,2.00086 v 9.13548 m 0,2.00086 v 9.13548 m 0,2.00086 v 9.1355 m 0,2.00087 v 9.13549 m 0,2.00085 v 9.1355 m 0,2.00085 v 9.1355 m 0,2.00086 v 5.56814 M 75.16594,217 v 5.56818 m 0,2.00086 v 9.13548 m 0,2.00086 v 9.13548 m 0,2.00086 v 9.1355 m 0,2.00087 v 9.13549 m 0,2.00085 v 9.1355 m 0,2.00085 v 9.1355 m 0,2.00086 v 5.56814 M 76.76235,217 v 5.56818 m 0,2.00086 v 9.13548 m 0,2.00086 v 9.13548 m 0,2.00086 v 9.1355 m 0,2.00087 v 9.13549 m 0,2.00085 v 9.1355 m 0,2.00085 v 9.1355 m 0,2.00086 v 5.56814 M 78.35879,217 v 5.56818 m 0,2.00086 v 9.13548 m 0,2.00086 v 9.13548 m 0,2.00086 v 9.1355 m 0,2.00087 v 9.13549 m 0,2.00085 v 9.1355 m 0,2.00085 v 9.1355 m 0,2.00086 v 5.56814 M 79.95521,217 v 5.56818 m 0,2.00086 v 9.13548 m 0,2.00086 v 9.13548 m 0,2.00086 v 9.1355 m 0,2.00087 v 9.13549 m 0,2.00085 v 9.1355 m 0,2.00085 v 9.1355 m 0,2.00086 v 5.56814 M 40.84285,219.00086 v 9.13549 m 0,2.00085 v 9.1355 m 0,2.00086 v 9.13549 m 0,2.00085 v 9.13549 m 0,2.00086 v 9.1355 m 0,2.00086 v 9.13549 m 0,2.00086 v 9.13547 m 0,2.00085 v 0 m 1.59643,-77.95442 v 9.13549 m 0,2.00085 v 9.1355 m 0,2.00086 v 9.13549 m 0,2.00085 v 9.13549 m 0,2.00086 v 9.1355 m 0,2.00086 v 9.13549 m 0,2.00086 v 9.13547 m 0,2.00085 v 0 m 1.59642,-77.95442 v 9.13549 m 0,2.00085 v 9.1355 m 0,2.00086 v 9.13549 m 0,2.00085 v 9.13549 m 0,2.00086 v 9.1355 m 0,2.00086 v 9.13549 m 0,2.00086 v 9.13547 m 0,2.00085 v 0 m 1.59642,-77.95442 v 9.13549 m 0,2.00085 v 9.1355 m 0,2.00086 v 9.13549 m 0,2.00085 v 9.13549 m 0,2.00086 v 9.1355 m 0,2.00086 v 9.13549 m 0,2.00086 v 9.13547 m 0,2.00085 v 0 m 1.59641,-77.95442 v 9.13549 m 0,2.00085 v 9.1355 m 0,2.00086 v 9.13549 m 0,2.00085 v 9.13549 m 0,2.00086 v 9.1355 m 0,2.00086 v 9.13549 m 0,2.00086 v 9.13547 m 0,2.00085 v 0 m 1.59643,-77.95442 v 9.13549 m 0,2.00085 v 9.1355 m 0,2.00086 v 9.13549 m 0,2.00085 v 9.13549 m 0,2.00086 v 9.1355 m 0,2.00086 v 9.13549 m 0,2.00086 v 9.13547 m 0,2.00085 v 0 m 1.59642,-77.95442 v 9.13549 m 0,2.00085 v 9.1355 m 0,2.00086 v 9.13549 m 0,2.00085 v 9.13549 m 0,2.00086 v 9.1355 m 0,2.00086 v 9.13549 m 0,2.00086 v 9.13547 m 0,2.00085 v 0 m 1.59642,-77.95442 v 9.13549 m 0,2.00085 v 9.1355 m 0,2.00086 v 9.13549 m 0,2.00085 v 9.13549 m 0,2.00086 v 9.1355 m 0,2.00086 v 9.13549 m 0,2.00086 v 9.13547 m 0,2.00085 v 0 m 1.59643,-77.95442 v 9.13549 m 0,2.00085 v 9.1355 m 0,2.00086 v 9.13549 m 0,2.00085 v 9.13549 m 0,2.00086 v 9.1355 m 0,2.00086 v 9.13549 m 0,2.00086 v 9.13547 m 0,2.00085 v 0 m 1.59642,-77.95442 v 9.13549 m 0,2.00085 v 9.1355 m 0,2.00086 v 9.13549 m 0,2.00085 v 9.13549 m 0,2.00086 v 9.1355 m 0,2.00086 v 9.13549 m 0,2.00086 v 9.13547 m 0,2.00085 v 0 m 1.59643,-77.95442 v 9.13549 m 0,2.00085 v 9.1355 m 0,2.00086 v 9.13549 m 0,2.00085 v 9.13549 m 0,2.00086 v 9.1355 m 0,2.00086 v 9.13549 m 0,2.00086 v 9.13547 m 0,2.00085 v 0 m 1.59642,-77.95442 v 9.13549 m 0,2.00085 v 9.1355 m 0,2.00086 v 9.13549 m 0,2.00085 v 9.13549 m 0,2.00086 v 9.1355 m 0,2.00086 v 9.13549 m 0,2.00086 v 9.13547 m 0,2.00085 v 0 m 1.59642,-77.95442 v 9.13549 m 0,2.00085 v 9.1355 m 0,2.00086 v 9.13549 m 0,2.00085 v 9.13549 m 0,2.00086 v 9.1355 m 0,2.00086 v 9.13549 m 0,2.00086 v 9.13547 m 0,2.00085 v 0 m 1.59642,-77.95442 v 9.13549 m 0,2.00085 v 9.1355 m 0,2.00086 v 9.13549 m 0,2.00085 v 9.13549 m 0,2.00086 v 9.1355 m 0,2.00086 v 9.13549 m 0,2.00086 v 9.13547 m 0,2.00085 v 0 m 1.59643,-77.95442 v 9.13549 m 0,2.00085 v 9.1355 m 0,2.00086 v 9.13549 m 0,2.00085 v 9.13549 m 0,2.00086 v 9.1355 m 0,2.00086 v 9.13549 m 0,2.00086 v 9.13547 m 0,2.00085 v 0 m 1.59642,-77.95442 v 9.13549 m 0,2.00085 v 9.1355 m 0,2.00086 v 9.13549 m 0,2.00085 v 9.13549 m 0,2.00086 v 9.1355 m 0,2.00086 v 9.13549 m 0,2.00086 v 9.13547 m 0,2.00085 v 0 m 1.59642,-77.95442 v 9.13549 m 0,2.00085 v 9.1355 m 0,2.00086 v 9.13549 m 0,2.00085 v 9.13549 m 0,2.00086 v 9.1355 m 0,2.00086 v 9.13549 m 0,2.00086 v 9.13547 m 0,2.00085 v 0 m 1.59643,-77.95442 v 9.13549 m 0,2.00085 v 9.1355 m 0,2.00086 v 9.13549 m 0,2.00085 v 9.13549 m 0,2.00086 v 9.1355 m 0,2.00086 v 9.13549 m 0,2.00086 v 9.13547 m 0,2.00085 v 0 m 1.59642,-77.95442 v 9.13549 m 0,2.00085 v 9.1355 m 0,2.00086 v 9.13549 m 0,2.00085 v 9.13549 m 0,2.00086 v 9.1355 m 0,2.00086 v 9.13549 m 0,2.00086 v 9.13547 m 0,2.00085 v 0 m 1.59644,-77.95442 v 9.13549 m 0,2.00085 v 9.1355 m 0,2.00086 v 9.13549 m 0,2.00085 v 9.13549 m 0,2.00086 v 9.1355 m 0,2.00086 v 9.13549 m 0,2.00086 v 9.13547 m 0,2.00085 v 0 m 1.59641,-77.95442 v 9.13549 m 0,2.00085 v 9.1355 m 0,2.00086 v 9.13549 m 0,2.00085 v 9.13549 m 0,2.00086 v 9.1355 m 0,2.00086 v 9.13549 m 0,2.00086 v 9.13547 m 0,2.00085 v 0 m 1.5964,-77.95442 v 9.13549 m 0,2.00085 v 9.1355 m 0,2.00086 v 9.13549 m 0,2.00085 v 9.13549 m 0,2.00086 v 9.1355 m 0,2.00086 v 9.13549 m 0,2.00086 v 9.13547 m 0,2.00085 v 0 m 1.59644,-77.95442 v 9.13549 m 0,2.00085 v 9.1355 m 0,2.00086 v 9.13549 m 0,2.00085 v 9.13549 m 0,2.00086 v 9.1355 m 0,2.00086 v 9.13549 m 0,2.00086 v 9.13547 m 0,2.00085 v 0 m 1.59643,-77.95442 v 9.13549 m 0,2.00085 v 9.1355 m 0,2.00086 v 9.13549 m 0,2.00085 v 9.13549 m 0,2.00086 v 9.1355 m 0,2.00086 v 9.13549 m 0,2.00086 v 9.13547 m 0,2.00085 v 0 m 1.59643,-77.95442 v 9.13549 m 0,2.00085 v 9.1355 m 0,2.00086 v 9.13549 m 0,2.00085 v 9.13549 m 0,2.00086 v 9.1355 m 0,2.00086 v 9.13549 m 0,2.00086 v 9.13547 m 0,2.00085 v 0"
       inkscape:connector-curvature="0">
      <desc
         id="desc903-0-5">Hinge cut parameters: actual(requested)
cut length: 9.13 mm (9.00 mm)
gap length: 2.00 mm (2.00 mm)
separation distance: 1.00 mm (1.00 mm)</desc>
    </path>
    <path
       id="path905-2-69"
       style="fill:none;stroke:#ff0000;stroke-width:0.1;stroke-opacity:1;stroke-miterlimit:4;stroke-dasharray:none"
       d="m 160.04463,217 v 5.56818 m 0,2.00086 v 9.13548 m 0,2.00086 v 9.13548 m 0,2.00086 v 9.1355 m 0,2.00087 v 9.13549 m 0,2.00085 v 9.1355 m 0,2.00085 v 9.1355 m 0,2.00086 v 5.56814 M 161.64105,217 v 5.56818 m 0,2.00086 v 9.13548 m 0,2.00086 v 9.13548 m 0,2.00086 v 9.1355 m 0,2.00087 v 9.13549 m 0,2.00085 v 9.1355 m 0,2.00085 v 9.1355 m 0,2.00086 v 5.56814 M 163.23747,217 v 5.56818 m 0,2.00086 v 9.13548 m 0,2.00086 v 9.13548 m 0,2.00086 v 9.1355 m 0,2.00087 v 9.13549 m 0,2.00085 v 9.1355 m 0,2.00085 v 9.1355 m 0,2.00086 v 5.56814 M 164.8339,217 v 5.56818 m 0,2.00086 v 9.13548 m 0,2.00086 v 9.13548 m 0,2.00086 v 9.1355 m 0,2.00087 v 9.13549 m 0,2.00085 v 9.1355 m 0,2.00085 v 9.1355 m 0,2.00086 v 5.56814 M 166.43032,217 v 5.56818 m 0,2.00086 v 9.13548 m 0,2.00086 v 9.13548 m 0,2.00086 v 9.1355 m 0,2.00087 v 9.13549 m 0,2.00085 v 9.1355 m 0,2.00085 v 9.1355 m 0,2.00086 v 5.56814 M 168.02674,217 v 5.56818 m 0,2.00086 v 9.13548 m 0,2.00086 v 9.13548 m 0,2.00086 v 9.1355 m 0,2.00087 v 9.13549 m 0,2.00085 v 9.1355 m 0,2.00085 v 9.1355 m 0,2.00086 v 5.56814 M 169.62316,217 v 5.56818 m 0,2.00086 v 9.13548 m 0,2.00086 v 9.13548 m 0,2.00086 v 9.1355 m 0,2.00087 v 9.13549 m 0,2.00085 v 9.1355 m 0,2.00085 v 9.1355 m 0,2.00086 v 5.56814 M 171.21958,217 v 5.56818 m 0,2.00086 v 9.13548 m 0,2.00086 v 9.13548 m 0,2.00086 v 9.1355 m 0,2.00087 v 9.13549 m 0,2.00085 v 9.1355 m 0,2.00085 v 9.1355 m 0,2.00086 v 5.56814 M 172.81601,217 v 5.56818 m 0,2.00086 v 9.13548 m 0,2.00086 v 9.13548 m 0,2.00086 v 9.1355 m 0,2.00087 v 9.13549 m 0,2.00085 v 9.1355 m 0,2.00085 v 9.1355 m 0,2.00086 v 5.56814 M 174.41243,217 v 5.56818 m 0,2.00086 v 9.13548 m 0,2.00086 v 9.13548 m 0,2.00086 v 9.1355 m 0,2.00087 v 9.13549 m 0,2.00085 v 9.1355 m 0,2.00085 v 9.1355 m 0,2.00086 v 5.56814 M 176.00885,217 v 5.56818 m 0,2.00086 v 9.13548 m 0,2.00086 v 9.13548 m 0,2.00086 v 9.1355 m 0,2.00087 v 9.13549 m 0,2.00085 v 9.1355 m 0,2.00085 v 9.1355 m 0,2.00086 v 5.56814 M 177.60527,217 v 5.56818 m 0,2.00086 v 9.13548 m 0,2.00086 v 9.13548 m 0,2.00086 v 9.1355 m 0,2.00087 v 9.13549 m 0,2.00085 v 9.1355 m 0,2.00085 v 9.1355 m 0,2.00086 v 5.56814 M 179.2017,217 v 5.56818 m 0,2.00086 v 9.13548 m 0,2.00086 v 9.13548 m 0,2.00086 v 9.1355 m 0,2.00087 v 9.13549 m 0,2.00085 v 9.1355 m 0,2.00085 v 9.1355 m 0,2.00086 v 5.56814 M 180.79813,217 v 5.56818 m 0,2.00086 v 9.13548 m 0,2.00086 v 9.13548 m 0,2.00086 v 9.1355 m 0,2.00087 v 9.13549 m 0,2.00085 v 9.1355 m 0,2.00085 v 9.1355 m 0,2.00086 v 5.56814 M 182.39455,217 v 5.56818 m 0,2.00086 v 9.13548 m 0,2.00086 v 9.13548 m 0,2.00086 v 9.1355 m 0,2.00087 v 9.13549 m 0,2.00085 v 9.1355 m 0,2.00085 v 9.1355 m 0,2.00086 v 5.56814 M 183.99097,217 v 5.56818 m 0,2.00086 v 9.13548 m 0,2.00086 v 9.13548 m 0,2.00086 v 9.1355 m 0,2.00087 v 9.13549 m 0,2.00085 v 9.1355 m 0,2.00085 v 9.1355 m 0,2.00086 v 5.56814 M 185.58739,217 v 5.56818 m 0,2.00086 v 9.13548 m 0,2.00086 v 9.13548 m 0,2.00086 v 9.1355 m 0,2.00087 v 9.13549 m 0,2.00085 v 9.1355 m 0,2.00085 v 9.1355 m 0,2.00086 v 5.56814 M 187.18382,217 v 5.56818 m 0,2.00086 v 9.13548 m 0,2.00086 v 9.13548 m 0,2.00086 v 9.1355 m 0,2.00087 v 9.13549 m 0,2.00085 v 9.1355 m 0,2.00085 v 9.1355 m 0,2.00086 v 5.56814 M 188.78024,217 v 5.56818 m 0,2.00086 v 9.13548 m 0,2.00086 v 9.13548 m 0,2.00086 v 9.1355 m 0,2.00087 v 9.13549 m 0,2.00085 v 9.1355 m 0,2.00085 v 9.1355 m 0,2.00086 v 5.56814 M 190.37666,217 v 5.56818 m 0,2.00086 v 9.13548 m 0,2.00086 v 9.13548 m 0,2.00086 v 9.1355 m 0,2.00087 v 9.13549 m 0,2.00085 v 9.1355 m 0,2.00085 v 9.1355 m 0,2.00086 v 5.56814 M 191.97309,217 v 5.56818 m 0,2.00086 v 9.13548 m 0,2.00086 v 9.13548 m 0,2.00086 v 9.1355 m 0,2.00087 v 9.13549 m 0,2.00085 v 9.1355 m 0,2.00085 v 9.1355 m 0,2.00086 v 5.56814 M 193.5695,217 v 5.56818 m 0,2.00086 v 9.13548 m 0,2.00086 v 9.13548 m 0,2.00086 v 9.1355 m 0,2.00087 v 9.13549 m 0,2.00085 v 9.1355 m 0,2.00085 v 9.1355 m 0,2.00086 v 5.56814 M 195.16593,217 v 5.56818 m 0,2.00086 v 9.13548 m 0,2.00086 v 9.13548 m 0,2.00086 v 9.1355 m 0,2.00087 v 9.13549 m 0,2.00085 v 9.1355 m 0,2.00085 v 9.1355 m 0,2.00086 v 5.56814 M 196.76233,217 v 5.56818 m 0,2.00086 v 9.13548 m 0,2.00086 v 9.13548 m 0,2.00086 v 9.1355 m 0,2.00087 v 9.13549 m 0,2.00085 v 9.1355 m 0,2.00085 v 9.1355 m 0,2.00086 v 5.56814 M 198.35878,217 v 5.56818 m 0,2.00086 v 9.13548 m 0,2.00086 v 9.13548 m 0,2.00086 v 9.1355 m 0,2.00087 v 9.13549 m 0,2.00085 v 9.1355 m 0,2.00085 v 9.1355 m 0,2.00086 v 5.56814 M 199.95519,217 v 5.56818 m 0,2.00086 v 9.13548 m 0,2.00086 v 9.13548 m 0,2.00086 v 9.1355 m 0,2.00087 v 9.13549 m 0,2.00085 v 9.1355 m 0,2.00085 v 9.1355 m 0,2.00086 v 5.56814 m -39.11235,-77.95442 v 9.13549 m 0,2.00085 v 9.1355 m 0,2.00086 v 9.13549 m 0,2.00085 v 9.13549 m 0,2.00086 v 9.1355 m 0,2.00086 v 9.13549 m 0,2.00086 v 9.13547 m 0,2.00085 v 0 m 1.59643,-77.95442 v 9.13549 m 0,2.00085 v 9.1355 m 0,2.00086 v 9.13549 m 0,2.00085 v 9.13549 m 0,2.00086 v 9.1355 m 0,2.00086 v 9.13549 m 0,2.00086 v 9.13547 m 0,2.00085 v 0 m 1.59642,-77.95442 v 9.13549 m 0,2.00085 v 9.1355 m 0,2.00086 v 9.13549 m 0,2.00085 v 9.13549 m 0,2.00086 v 9.1355 m 0,2.00086 v 9.13549 m 0,2.00086 v 9.13547 m 0,2.00085 v 0 m 1.59642,-77.95442 v 9.13549 m 0,2.00085 v 9.1355 m 0,2.00086 v 9.13549 m 0,2.00085 v 9.13549 m 0,2.00086 v 9.1355 m 0,2.00086 v 9.13549 m 0,2.00086 v 9.13547 m 0,2.00085 v 0 m 1.59641,-77.95442 v 9.13549 m 0,2.00085 v 9.1355 m 0,2.00086 v 9.13549 m 0,2.00085 v 9.13549 m 0,2.00086 v 9.1355 m 0,2.00086 v 9.13549 m 0,2.00086 v 9.13547 m 0,2.00085 v 0 m 1.59643,-77.95442 v 9.13549 m 0,2.00085 v 9.1355 m 0,2.00086 v 9.13549 m 0,2.00085 v 9.13549 m 0,2.00086 v 9.1355 m 0,2.00086 v 9.13549 m 0,2.00086 v 9.13547 m 0,2.00085 v 0 m 1.59642,-77.95442 v 9.13549 m 0,2.00085 v 9.1355 m 0,2.00086 v 9.13549 m 0,2.00085 v 9.13549 m 0,2.00086 v 9.1355 m 0,2.00086 v 9.13549 m 0,2.00086 v 9.13547 m 0,2.00085 v 0 m 1.59642,-77.95442 v 9.13549 m 0,2.00085 v 9.1355 m 0,2.00086 v 9.13549 m 0,2.00085 v 9.13549 m 0,2.00086 v 9.1355 m 0,2.00086 v 9.13549 m 0,2.00086 v 9.13547 m 0,2.00085 v 0 m 1.59643,-77.95442 v 9.13549 m 0,2.00085 v 9.1355 m 0,2.00086 v 9.13549 m 0,2.00085 v 9.13549 m 0,2.00086 v 9.1355 m 0,2.00086 v 9.13549 m 0,2.00086 v 9.13547 m 0,2.00085 v 0 m 1.59642,-77.95442 v 9.13549 m 0,2.00085 v 9.1355 m 0,2.00086 v 9.13549 m 0,2.00085 v 9.13549 m 0,2.00086 v 9.1355 m 0,2.00086 v 9.13549 m 0,2.00086 v 9.13547 m 0,2.00085 v 0 m 1.59643,-77.95442 v 9.13549 m 0,2.00085 v 9.1355 m 0,2.00086 v 9.13549 m 0,2.00085 v 9.13549 m 0,2.00086 v 9.1355 m 0,2.00086 v 9.13549 m 0,2.00086 v 9.13547 m 0,2.00085 v 0 m 1.59642,-77.95442 v 9.13549 m 0,2.00085 v 9.1355 m 0,2.00086 v 9.13549 m 0,2.00085 v 9.13549 m 0,2.00086 v 9.1355 m 0,2.00086 v 9.13549 m 0,2.00086 v 9.13547 m 0,2.00085 v 0 m 1.59642,-77.95442 v 9.13549 m 0,2.00085 v 9.1355 m 0,2.00086 v 9.13549 m 0,2.00085 v 9.13549 m 0,2.00086 v 9.1355 m 0,2.00086 v 9.13549 m 0,2.00086 v 9.13547 m 0,2.00085 v 0 m 1.59642,-77.95442 v 9.13549 m 0,2.00085 v 9.1355 m 0,2.00086 v 9.13549 m 0,2.00085 v 9.13549 m 0,2.00086 v 9.1355 m 0,2.00086 v 9.13549 m 0,2.00086 v 9.13547 m 0,2.00085 v 0 m 1.59643,-77.95442 v 9.13549 m 0,2.00085 v 9.1355 m 0,2.00086 v 9.13549 m 0,2.00085 v 9.13549 m 0,2.00086 v 9.1355 m 0,2.00086 v 9.13549 m 0,2.00086 v 9.13547 m 0,2.00085 v 0 m 1.59642,-77.95442 v 9.13549 m 0,2.00085 v 9.1355 m 0,2.00086 v 9.13549 m 0,2.00085 v 9.13549 m 0,2.00086 v 9.1355 m 0,2.00086 v 9.13549 m 0,2.00086 v 9.13547 m 0,2.00085 v 0 m 1.59642,-77.95442 v 9.13549 m 0,2.00085 v 9.1355 m 0,2.00086 v 9.13549 m 0,2.00085 v 9.13549 m 0,2.00086 v 9.1355 m 0,2.00086 v 9.13549 m 0,2.00086 v 9.13547 m 0,2.00085 v 0 m 1.59643,-77.95442 v 9.13549 m 0,2.00085 v 9.1355 m 0,2.00086 v 9.13549 m 0,2.00085 v 9.13549 m 0,2.00086 v 9.1355 m 0,2.00086 v 9.13549 m 0,2.00086 v 9.13547 m 0,2.00085 v 0 m 1.59642,-77.95442 v 9.13549 m 0,2.00085 v 9.1355 m 0,2.00086 v 9.13549 m 0,2.00085 v 9.13549 m 0,2.00086 v 9.1355 m 0,2.00086 v 9.13549 m 0,2.00086 v 9.13547 m 0,2.00085 v 0 m 1.59644,-77.95442 v 9.13549 m 0,2.00085 v 9.1355 m 0,2.00086 v 9.13549 m 0,2.00085 v 9.13549 m 0,2.00086 v 9.1355 m 0,2.00086 v 9.13549 m 0,2.00086 v 9.13547 m 0,2.00085 v 0 m 1.59641,-77.95442 v 9.13549 m 0,2.00085 v 9.1355 m 0,2.00086 v 9.13549 m 0,2.00085 v 9.13549 m 0,2.00086 v 9.1355 m 0,2.00086 v 9.13549 m 0,2.00086 v 9.13547 m 0,2.00085 v 0 m 1.5964,-77.95442 v 9.13549 m 0,2.00085 v 9.1355 m 0,2.00086 v 9.13549 m 0,2.00085 v 9.13549 m 0,2.00086 v 9.1355 m 0,2.00086 v 9.13549 m 0,2.00086 v 9.13547 m 0,2.00085 v 0 m 1.59643,-77.95442 v 9.13549 m 0,2.00085 v 9.1355 m 0,2.00086 v 9.13549 m 0,2.00085 v 9.13549 m 0,2.00086 v 9.1355 m 0,2.00086 v 9.13549 m 0,2.00086 v 9.13547 m 0,2.00085 v 0 m 1.59643,-77.95442 v 9.13549 m 0,2.00085 v 9.1355 m 0,2.00086 v 9.13549 m 0,2.00085 v 9.13549 m 0,2.00086 v 9.1355 m 0,2.00086 v 9.13549 m 0,2.00086 v 9.13547 m 0,2.00085 v 0 m 1.59643,-77.95442 v 9.13549 m 0,2.00085 v 9.1355 m 0,2.00086 v 9.13549 m 0,2.00085 v 9.13549 m 0,2.00086 v 9.1355 m 0,2.00086 v 9.13549 m 0,2.00086 v 9.13547 m 0,2.00085 v 0"
       inkscape:connector-curvature="0">
      <desc
         id="desc903-0-6">Hinge cut parameters: actual(requested)
cut length: 9.13 mm (9.00 mm)
gap length: 2.00 mm (2.00 mm)
separation distance: 1.00 mm (1.00 mm)</desc>
    </path>
    <path
       id="path905-2-8"
       style="fill:none;stroke:#ff0000;stroke-width:0.1;stroke-opacity:1;stroke-miterlimit:4;stroke-dasharray:none"
       d="m 280.04465,217 v 5.56818 m 0,2.00086 v 9.13548 m 0,2.00086 v 9.13548 m 0,2.00086 v 9.1355 m 0,2.00087 v 9.13549 m 0,2.00085 v 9.1355 m 0,2.00085 v 9.1355 m 0,2.00086 v 5.56814 M 281.64107,217 v 5.56818 m 0,2.00086 v 9.13548 m 0,2.00086 v 9.13548 m 0,2.00086 v 9.1355 m 0,2.00087 v 9.13549 m 0,2.00085 v 9.1355 m 0,2.00085 v 9.1355 m 0,2.00086 v 5.56814 M 283.23749,217 v 5.56818 m 0,2.00086 v 9.13548 m 0,2.00086 v 9.13548 m 0,2.00086 v 9.1355 m 0,2.00087 v 9.13549 m 0,2.00085 v 9.1355 m 0,2.00085 v 9.1355 m 0,2.00086 v 5.56814 M 284.83392,217 v 5.56818 m 0,2.00086 v 9.13548 m 0,2.00086 v 9.13548 m 0,2.00086 v 9.1355 m 0,2.00087 v 9.13549 m 0,2.00085 v 9.1355 m 0,2.00085 v 9.1355 m 0,2.00086 v 5.56814 M 286.43034,217 v 5.56818 m 0,2.00086 v 9.13548 m 0,2.00086 v 9.13548 m 0,2.00086 v 9.1355 m 0,2.00087 v 9.13549 m 0,2.00085 v 9.1355 m 0,2.00085 v 9.1355 m 0,2.00086 v 5.56814 M 288.02676,217 v 5.56818 m 0,2.00086 v 9.13548 m 0,2.00086 v 9.13548 m 0,2.00086 v 9.1355 m 0,2.00087 v 9.13549 m 0,2.00085 v 9.1355 m 0,2.00085 v 9.1355 m 0,2.00086 v 5.56814 M 289.62318,217 v 5.56818 m 0,2.00086 v 9.13548 m 0,2.00086 v 9.13548 m 0,2.00086 v 9.1355 m 0,2.00087 v 9.13549 m 0,2.00085 v 9.1355 m 0,2.00085 v 9.1355 m 0,2.00086 v 5.56814 M 291.2196,217 v 5.56818 m 0,2.00086 v 9.13548 m 0,2.00086 v 9.13548 m 0,2.00086 v 9.1355 m 0,2.00087 v 9.13549 m 0,2.00085 v 9.1355 m 0,2.00085 v 9.1355 m 0,2.00086 v 5.56814 M 292.81603,217 v 5.56818 m 0,2.00086 v 9.13548 m 0,2.00086 v 9.13548 m 0,2.00086 v 9.1355 m 0,2.00087 v 9.13549 m 0,2.00085 v 9.1355 m 0,2.00085 v 9.1355 m 0,2.00086 v 5.56814 M 294.41245,217 v 5.56818 m 0,2.00086 v 9.13548 m 0,2.00086 v 9.13548 m 0,2.00086 v 9.1355 m 0,2.00087 v 9.13549 m 0,2.00085 v 9.1355 m 0,2.00085 v 9.1355 m 0,2.00086 v 5.56814 M 296.00887,217 v 5.56818 m 0,2.00086 v 9.13548 m 0,2.00086 v 9.13548 m 0,2.00086 v 9.1355 m 0,2.00087 v 9.13549 m 0,2.00085 v 9.1355 m 0,2.00085 v 9.1355 m 0,2.00086 v 5.56814 M 297.60529,217 v 5.56818 m 0,2.00086 v 9.13548 m 0,2.00086 v 9.13548 m 0,2.00086 v 9.1355 m 0,2.00087 v 9.13549 m 0,2.00085 v 9.1355 m 0,2.00085 v 9.1355 m 0,2.00086 v 5.56814 M 299.20172,217 v 5.56818 m 0,2.00086 v 9.13548 m 0,2.00086 v 9.13548 m 0,2.00086 v 9.1355 m 0,2.00087 v 9.13549 m 0,2.00085 v 9.1355 m 0,2.00085 v 9.1355 m 0,2.00086 v 5.56814 M 300.79815,217 v 5.56818 m 0,2.00086 v 9.13548 m 0,2.00086 v 9.13548 m 0,2.00086 v 9.1355 m 0,2.00087 v 9.13549 m 0,2.00085 v 9.1355 m 0,2.00085 v 9.1355 m 0,2.00086 v 5.56814 M 302.39457,217 v 5.56818 m 0,2.00086 v 9.13548 m 0,2.00086 v 9.13548 m 0,2.00086 v 9.1355 m 0,2.00087 v 9.13549 m 0,2.00085 v 9.1355 m 0,2.00085 v 9.1355 m 0,2.00086 v 5.56814 M 303.99099,217 v 5.56818 m 0,2.00086 v 9.13548 m 0,2.00086 v 9.13548 m 0,2.00086 v 9.1355 m 0,2.00087 v 9.13549 m 0,2.00085 v 9.1355 m 0,2.00085 v 9.1355 m 0,2.00086 v 5.56814 M 305.58741,217 v 5.56818 m 0,2.00086 v 9.13548 m 0,2.00086 v 9.13548 m 0,2.00086 v 9.1355 m 0,2.00087 v 9.13549 m 0,2.00085 v 9.1355 m 0,2.00085 v 9.1355 m 0,2.00086 v 5.56814 M 307.18383,217 v 5.56818 m 0,2.00086 v 9.13548 m 0,2.00086 v 9.13548 m 0,2.00086 v 9.1355 m 0,2.00087 v 9.13549 m 0,2.00085 v 9.1355 m 0,2.00085 v 9.1355 m 0,2.00086 v 5.56814 M 308.78026,217 v 5.56818 m 0,2.00086 v 9.13548 m 0,2.00086 v 9.13548 m 0,2.00086 v 9.1355 m 0,2.00087 v 9.13549 m 0,2.00085 v 9.1355 m 0,2.00085 v 9.1355 m 0,2.00086 v 5.56814 M 310.37668,217 v 5.56818 m 0,2.00086 v 9.13548 m 0,2.00086 v 9.13548 m 0,2.00086 v 9.1355 m 0,2.00087 v 9.13549 m 0,2.00085 v 9.1355 m 0,2.00085 v 9.1355 m 0,2.00086 v 5.56814 M 311.97311,217 v 5.56818 m 0,2.00086 v 9.13548 m 0,2.00086 v 9.13548 m 0,2.00086 v 9.1355 m 0,2.00087 v 9.13549 m 0,2.00085 v 9.1355 m 0,2.00085 v 9.1355 m 0,2.00086 v 5.56814 M 313.56952,217 v 5.56818 m 0,2.00086 v 9.13548 m 0,2.00086 v 9.13548 m 0,2.00086 v 9.1355 m 0,2.00087 v 9.13549 m 0,2.00085 v 9.1355 m 0,2.00085 v 9.1355 m 0,2.00086 v 5.56814 M 315.16595,217 v 5.56818 m 0,2.00086 v 9.13548 m 0,2.00086 v 9.13548 m 0,2.00086 v 9.1355 m 0,2.00087 v 9.13549 m 0,2.00085 v 9.1355 m 0,2.00085 v 9.1355 m 0,2.00086 v 5.56814 M 316.76235,217 v 5.56818 m 0,2.00086 v 9.13548 m 0,2.00086 v 9.13548 m 0,2.00086 v 9.1355 m 0,2.00087 v 9.13549 m 0,2.00085 v 9.1355 m 0,2.00085 v 9.1355 m 0,2.00086 v 5.56814 M 318.35879,217 v 5.56818 m 0,2.00086 v 9.13548 m 0,2.00086 v 9.13548 m 0,2.00086 v 9.1355 m 0,2.00087 v 9.13549 m 0,2.00085 v 9.1355 m 0,2.00085 v 9.1355 m 0,2.00086 v 5.56814 M 319.95521,217 v 5.56818 m 0,2.00086 v 9.13548 m 0,2.00086 v 9.13548 m 0,2.00086 v 9.1355 m 0,2.00087 v 9.13549 m 0,2.00085 v 9.1355 m 0,2.00085 v 9.1355 m 0,2.00086 v 5.56814 m -39.11235,-77.95442 v 9.13549 m 0,2.00085 v 9.1355 m 0,2.00086 v 9.13549 m 0,2.00085 v 9.13549 m 0,2.00086 v 9.1355 m 0,2.00086 v 9.13549 m 0,2.00086 v 9.13547 m 0,2.00085 v 0 m 1.59643,-77.95442 v 9.13549 m 0,2.00085 v 9.1355 m 0,2.00086 v 9.13549 m 0,2.00085 v 9.13549 m 0,2.00086 v 9.1355 m 0,2.00086 v 9.13549 m 0,2.00086 v 9.13547 m 0,2.00085 v 0 m 1.59642,-77.95442 v 9.13549 m 0,2.00085 v 9.1355 m 0,2.00086 v 9.13549 m 0,2.00085 v 9.13549 m 0,2.00086 v 9.1355 m 0,2.00086 v 9.13549 m 0,2.00086 v 9.13547 m 0,2.00085 v 0 m 1.59642,-77.95442 v 9.13549 m 0,2.00085 v 9.1355 m 0,2.00086 v 9.13549 m 0,2.00085 v 9.13549 m 0,2.00086 v 9.1355 m 0,2.00086 v 9.13549 m 0,2.00086 v 9.13547 m 0,2.00085 v 0 m 1.59641,-77.95442 v 9.13549 m 0,2.00085 v 9.1355 m 0,2.00086 v 9.13549 m 0,2.00085 v 9.13549 m 0,2.00086 v 9.1355 m 0,2.00086 v 9.13549 m 0,2.00086 v 9.13547 m 0,2.00085 v 0 m 1.59643,-77.95442 v 9.13549 m 0,2.00085 v 9.1355 m 0,2.00086 v 9.13549 m 0,2.00085 v 9.13549 m 0,2.00086 v 9.1355 m 0,2.00086 v 9.13549 m 0,2.00086 v 9.13547 m 0,2.00085 v 0 m 1.59642,-77.95442 v 9.13549 m 0,2.00085 v 9.1355 m 0,2.00086 v 9.13549 m 0,2.00085 v 9.13549 m 0,2.00086 v 9.1355 m 0,2.00086 v 9.13549 m 0,2.00086 v 9.13547 m 0,2.00085 v 0 m 1.59642,-77.95442 v 9.13549 m 0,2.00085 v 9.1355 m 0,2.00086 v 9.13549 m 0,2.00085 v 9.13549 m 0,2.00086 v 9.1355 m 0,2.00086 v 9.13549 m 0,2.00086 v 9.13547 m 0,2.00085 v 0 m 1.59643,-77.95442 v 9.13549 m 0,2.00085 v 9.1355 m 0,2.00086 v 9.13549 m 0,2.00085 v 9.13549 m 0,2.00086 v 9.1355 m 0,2.00086 v 9.13549 m 0,2.00086 v 9.13547 m 0,2.00085 v 0 m 1.59642,-77.95442 v 9.13549 m 0,2.00085 v 9.1355 m 0,2.00086 v 9.13549 m 0,2.00085 v 9.13549 m 0,2.00086 v 9.1355 m 0,2.00086 v 9.13549 m 0,2.00086 v 9.13547 m 0,2.00085 v 0 m 1.59643,-77.95442 v 9.13549 m 0,2.00085 v 9.1355 m 0,2.00086 v 9.13549 m 0,2.00085 v 9.13549 m 0,2.00086 v 9.1355 m 0,2.00086 v 9.13549 m 0,2.00086 v 9.13547 m 0,2.00085 v 0 m 1.59642,-77.95442 v 9.13549 m 0,2.00085 v 9.1355 m 0,2.00086 v 9.13549 m 0,2.00085 v 9.13549 m 0,2.00086 v 9.1355 m 0,2.00086 v 9.13549 m 0,2.00086 v 9.13547 m 0,2.00085 v 0 m 1.59642,-77.95442 v 9.13549 m 0,2.00085 v 9.1355 m 0,2.00086 v 9.13549 m 0,2.00085 v 9.13549 m 0,2.00086 v 9.1355 m 0,2.00086 v 9.13549 m 0,2.00086 v 9.13547 m 0,2.00085 v 0 m 1.59642,-77.95442 v 9.13549 m 0,2.00085 v 9.1355 m 0,2.00086 v 9.13549 m 0,2.00085 v 9.13549 m 0,2.00086 v 9.1355 m 0,2.00086 v 9.13549 m 0,2.00086 v 9.13547 m 0,2.00085 v 0 m 1.59643,-77.95442 v 9.13549 m 0,2.00085 v 9.1355 m 0,2.00086 v 9.13549 m 0,2.00085 v 9.13549 m 0,2.00086 v 9.1355 m 0,2.00086 v 9.13549 m 0,2.00086 v 9.13547 m 0,2.00085 v 0 m 1.59642,-77.95442 v 9.13549 m 0,2.00085 v 9.1355 m 0,2.00086 v 9.13549 m 0,2.00085 v 9.13549 m 0,2.00086 v 9.1355 m 0,2.00086 v 9.13549 m 0,2.00086 v 9.13547 m 0,2.00085 v 0 m 1.59642,-77.95442 v 9.13549 m 0,2.00085 v 9.1355 m 0,2.00086 v 9.13549 m 0,2.00085 v 9.13549 m 0,2.00086 v 9.1355 m 0,2.00086 v 9.13549 m 0,2.00086 v 9.13547 m 0,2.00085 v 0 m 1.59643,-77.95442 v 9.13549 m 0,2.00085 v 9.1355 m 0,2.00086 v 9.13549 m 0,2.00085 v 9.13549 m 0,2.00086 v 9.1355 m 0,2.00086 v 9.13549 m 0,2.00086 v 9.13547 m 0,2.00085 v 0 m 1.59641,-77.95442 v 9.13549 m 0,2.00085 v 9.1355 m 0,2.00086 v 9.13549 m 0,2.00085 v 9.13549 m 0,2.00086 v 9.1355 m 0,2.00086 v 9.13549 m 0,2.00086 v 9.13547 m 0,2.00085 v 0 m 1.59644,-77.95442 v 9.13549 m 0,2.00085 v 9.1355 m 0,2.00086 v 9.13549 m 0,2.00085 v 9.13549 m 0,2.00086 v 9.1355 m 0,2.00086 v 9.13549 m 0,2.00086 v 9.13547 m 0,2.00085 v 0 m 1.59642,-77.95442 v 9.13549 m 0,2.00085 v 9.1355 m 0,2.00086 v 9.13549 m 0,2.00085 v 9.13549 m 0,2.00086 v 9.1355 m 0,2.00086 v 9.13549 m 0,2.00086 v 9.13547 m 0,2.00085 v 0 m 1.5964,-77.95442 v 9.13549 m 0,2.00085 v 9.1355 m 0,2.00086 v 9.13549 m 0,2.00085 v 9.13549 m 0,2.00086 v 9.1355 m 0,2.00086 v 9.13549 m 0,2.00086 v 9.13547 m 0,2.00085 v 0 m 1.59643,-77.95442 v 9.13549 m 0,2.00085 v 9.1355 m 0,2.00086 v 9.13549 m 0,2.00085 v 9.13549 m 0,2.00086 v 9.1355 m 0,2.00086 v 9.13549 m 0,2.00086 v 9.13547 m 0,2.00085 v 0 m 1.59643,-77.95442 v 9.13549 m 0,2.00085 v 9.1355 m 0,2.00086 v 9.13549 m 0,2.00085 v 9.13549 m 0,2.00086 v 9.1355 m 0,2.00086 v 9.13549 m 0,2.00086 v 9.13547 m 0,2.00085 v 0 m 1.59643,-77.95442 v 9.13549 m 0,2.00085 v 9.1355 m 0,2.00086 v 9.13549 m 0,2.00085 v 9.13549 m 0,2.00086 v 9.1355 m 0,2.00086 v 9.13549 m 0,2.00086 v 9.13547 m 0,2.00085 v 0"
       inkscape:connector-curvature="0">
      <desc
         id="desc903-0-1">Hinge cut parameters: actual(requested)
cut length: 9.13 mm (9.00 mm)
gap length: 2.00 mm (2.00 mm)
separation distance: 1.00 mm (1.00 mm)</desc>
    </path>
    <path
       style="opacity:1;fill:none;fill-opacity:1;fill-rule:evenodd;stroke:#00ff00;stroke-width:0.1;stroke-linecap:square;stroke-linejoin:round;stroke-miterlimit:4;stroke-dasharray:none;stroke-dashoffset:0;stroke-opacity:1;paint-order:normal"
       d="m 0.05000049,217.04985 v 9.16532 h 0.03410744 l -0.03410744,18.89757 v 25.73692 H 0.1016789 c -2.4077e-4,0.18603 -0.03370791,18.57262 -0.03410743,18.81177 H 0.05000049 v 7.28845 H 5.0057706 v -4.94396 h 9.9885364 v 4.94396 h 95.014353 v -4.94086 h 19.98225 v 4.94086 h 100.01818 v -4.94086 h 19.98224 v 4.94086 h 95.0712 v -4.90779 h 9.91722 v 4.90779 h 4.97024 v -7.15978 l 0.0212,-19.00349 -0.0212,-25.65836 0.004,-19.01177 -0.004,2.01486 v -11.08149 h -4.97489 v 4.90374 h -9.90792 v -4.90374 h -95.07585 v 4.94094 h -19.98224 v -4.94094 H 129.99091 v 4.94094 h -19.98225 v -4.94094 H 14.994307 v 4.94457 H 5.0057706 v -4.94457 z"
       id="rect1055"
       inkscape:connector-curvature="0"
       sodipodi:nodetypes="ccccccccccccccccccccccccccccccccccccccccccccccccc" />
    <path
       style="fill:none;fill-opacity:0;stroke:#ff0000;stroke-width:0.1;stroke-miterlimit:4;stroke-dasharray:none;stroke-opacity:1"
       d="m 121.23705,274.99566 a 6.7872117,6.7872128 0 0 0 -6.78718,6.7872 6.7872117,6.7872128 0 0 0 3.807,6.08901 h 5.97018 a 6.7872117,6.7872128 0 0 0 3.79718,-6.08901 6.7872117,6.7872128 0 0 0 -6.78718,-6.7872 z"
       id="path63"
       inkscape:connector-curvature="0" />
    <path
       style="fill:none;fill-opacity:0;stroke:#ff0000;stroke-width:0.37795276;stroke-miterlimit:4;stroke-dasharray:none;stroke-opacity:1"
       d="M 341.62109 1464.5254 A 30.077029 30.07704 0 0 0 323.00977 1492.3047 A 30.077029 30.07704 0 0 0 341.58203 1520.084 L 364.55078 1520.084 A 30.077029 30.07704 0 0 0 383.16406 1492.3047 A 30.077029 30.07704 0 0 0 364.58984 1464.5254 L 341.62109 1464.5254 z "
       transform="matrix(0.26458333,0,0,0.26458333,0,-160)"
       id="path59" />
    <path
       inkscape:connector-curvature="0"
       style="fill:none;fill-opacity:0;stroke:#ff0000;stroke-width:0.1;stroke-miterlimit:4;stroke-dasharray:none;stroke-opacity:1"
       d="m 113.22365,268.53853 a 1.2394154,1.2394115 0 0 1 -1.23942,-1.23942 1.2394154,1.2394115 0 0 1 1.23942,-1.23941 1.2394154,1.2394115 0 0 1 1.23942,1.23941 1.2394154,1.2394115 0 0 1 -1.23942,1.23942 z"
       id="path71" />
    <path
       inkscape:connector-curvature="0"
       style="fill:none;fill-opacity:0;stroke:#ff0000;stroke-width:0.1;stroke-miterlimit:4;stroke-dasharray:none;stroke-opacity:1"
       d="m 154.42336,268.53857 a 1.2391669,1.2391692 0 0 1 -1.23916,-1.23916 1.2391669,1.2391692 0 0 1 1.23916,-1.23917 1.2391669,1.2391692 0 0 1 1.23916,1.23917 1.2391669,1.2391692 0 0 1 -1.23916,1.23916 z"
       id="path69" />
    <path
       inkscape:connector-curvature="0"
       style="fill:none;fill-opacity:0;stroke:#ff0000;stroke-width:0.1;stroke-miterlimit:4;stroke-dasharray:none;stroke-opacity:1"
       d="m 154.42336,229.03455 a 1.2391669,1.2391692 0 0 1 -1.23916,-1.23916 1.2391669,1.2391692 0 0 1 1.23916,-1.23917 1.2391669,1.2391692 0 0 1 1.23916,1.23917 1.2391669,1.2391692 0 0 1 -1.23916,1.23916 z"
       id="path67" />
    <path
       style="fill:none;fill-opacity:0;stroke:#ff0000;stroke-width:0.1;stroke-miterlimit:4;stroke-dasharray:none;stroke-opacity:1"
       d="M 152.01649,232.85927 V 261.8049 H 116.06086 V 232.85927 Z"
       id="path4569-6"
       inkscape:connector-curvature="0" />
    <path
       inkscape:connector-curvature="0"
       style="fill:none;fill-opacity:0;stroke:#ff0000;stroke-width:0.1;stroke-miterlimit:4;stroke-dasharray:none;stroke-opacity:1"
       d="m 90.387057,258.49006 a 7.9578806,7.9578835 0 0 0 -4.924245,7.34994 7.9578806,7.9578835 0 0 0 4.91391,7.34994 h 6.077149 a 7.9578806,7.9578835 0 0 0 4.924769,-7.34994 7.9578806,7.9578835 0 0 0 -4.914434,-7.34994 z"
       id="path59-0" />
    <path
       inkscape:connector-curvature="0"
       style="fill:none;fill-opacity:0;stroke:#ff0000;stroke-width:0.1;stroke-miterlimit:4;stroke-dasharray:none;stroke-opacity:1"
       d="m 146.63721,274.99566 a 6.7872118,6.7872128 0 0 0 -6.78719,6.7872 6.7872118,6.7872128 0 0 0 3.80701,6.08902 h 5.97017 a 6.7872118,6.7872128 0 0 0 3.79719,-6.08902 6.7872118,6.7872128 0 0 0 -6.78718,-6.7872 z"
       id="path63-1" />
    <ellipse
       style="fill:none;fill-opacity:1;stroke:#ff0000;stroke-width:0.1;stroke-miterlimit:4;stroke-dasharray:none;stroke-opacity:1"
       id="path4993"
       cx="269.78632"
       cy="277.9953"
       rx="3.9936602"
       ry="3.99366" />
    <rect
       style="fill:none;fill-opacity:1;stroke:#ff0000;stroke-width:0.1;stroke-miterlimit:4;stroke-dasharray:none;stroke-opacity:1"
       id="rect5012"
       width="19.200001"
       height="12.9"
       x="240.36003"
       y="271.54529" />
    <circle
       style="fill:none;fill-opacity:1;stroke:#ff0000;stroke-width:0.1;stroke-miterlimit:4;stroke-dasharray:none;stroke-opacity:1"
       id="path4093"
       cx="215.00266"
       cy="219.522"
       r="1.4754099" />
    <circle
       style="fill:none;fill-opacity:1;stroke:#ff0000;stroke-width:0.1;stroke-miterlimit:4;stroke-dasharray:none;stroke-opacity:1"
       id="path4093-8"
       cx="264.99777"
       cy="219.522"
       r="1.4754099" />
    <circle
       style="fill:none;fill-opacity:1;stroke:#ff0000;stroke-width:0.1;stroke-miterlimit:4;stroke-dasharray:none;stroke-opacity:1"
       id="path4093-4"
       cx="215.00266"
       cy="294.48114"
       r="1.4754099" />
    <circle
       style="fill:none;fill-opacity:1;stroke:#ff0000;stroke-width:0.1;stroke-miterlimit:4;stroke-dasharray:none;stroke-opacity:1"
       id="path4093-6"
       cx="265.03821"
       cy="294.48654"
       r="1.4754099" />
    <circle
       style="fill:none;fill-opacity:1;stroke:#ff0000;stroke-width:0.1;stroke-miterlimit:4;stroke-dasharray:none;stroke-opacity:1"
       id="path4093-3"
       cx="145.03819"
       cy="294.48654"
       r="1.4754099" />
    <circle
       style="fill:none;fill-opacity:1;stroke:#ff0000;stroke-width:0.1;stroke-miterlimit:4;stroke-dasharray:none;stroke-opacity:1"
       id="path4093-1"
       cx="95.00222"
       cy="294.47778"
       r="1.4754099" />
    <circle
       style="fill:none;fill-opacity:1;stroke:#ff0000;stroke-width:0.1;stroke-miterlimit:4;stroke-dasharray:none;stroke-opacity:1"
       id="path4093-2"
       cx="95.00222"
       cy="219.522"
       r="1.4754099" />
    <circle
       style="fill:none;fill-opacity:1;stroke:#ff0000;stroke-width:0.1;stroke-miterlimit:4;stroke-dasharray:none;stroke-opacity:1"
       id="path4093-9"
       cx="144.99734"
       cy="219.522"
       r="1.4754099" />
    <circle
       style="fill:none;fill-opacity:1;stroke:#ff0000;stroke-width:0.1;stroke-miterlimit:4;stroke-dasharray:none;stroke-opacity:1"
       id="path4093-5"
       cx="27.472115"
       cy="219.51862"
       r="1.4754099" />
    <circle
       style="fill:none;fill-opacity:1;stroke:#ff0000;stroke-width:0.1;stroke-miterlimit:4;stroke-dasharray:none;stroke-opacity:1"
       id="path4093-5-3"
       cx="27.476473"
       cy="294.47906"
       r="1.4754099" />
    <circle
       style="fill:none;fill-opacity:1;stroke:#ff0000;stroke-width:0.1;stroke-miterlimit:4;stroke-dasharray:none;stroke-opacity:1"
       id="path4093-5-0"
       cx="332.58038"
       cy="294.47678"
       r="1.4754099" />
    <circle
       style="fill:none;fill-opacity:1;stroke:#ff0000;stroke-width:0.1;stroke-miterlimit:4;stroke-dasharray:none;stroke-opacity:1"
       id="path4093-5-4"
       cx="332.58502"
       cy="219.52298"
       r="1.4754099" />
    <path
       id="path180-3"
       style="opacity:1;fill:none;fill-opacity:1;fill-rule:evenodd;stroke:#ff0000;stroke-width:0.1;stroke-linecap:square;stroke-linejoin:round;stroke-miterlimit:4;stroke-dasharray:none;stroke-dashoffset:0;stroke-opacity:1;paint-order:normal"
       d="m 87.625405,97.374019 3.7e-4,2.983151 1.060374,-4.5e-4 0.001,2.487 -1.061337,0.0125 1.09e-4,1.5181 -3.09938,1e-4 -6.16e-4,-1.51718 -1.131775,-0.0135 v -2.478 l 1.132708,-0.008 3.51e-4,-2.983501 -4.59e-4,10e-4 -2.200583,1.2e-4 -11.119682,-4e-5 c 0,0 -0.05672,-0.003 -0.08478,-0.004 -0.0916,3.5e-4 -0.181006,0.005 -0.272152,0.006 -0.20652,0.002 -0.413706,0.007 -0.620374,0.0169 -0.05519,0.003 -0.109104,0.005 -0.164093,0.008 -2.914032,0.15103 -5.838162,0.96888 -8.538364,2.52786 l 5.09e-4,8.6e-4 -0.03847,0.0234 c -2.84654,1.652691 -5.106923,3.927541 -6.7076,6.553681 -0.110009,0.18052 -0.217218,0.36223 -0.321014,0.54601 l 2.8e-4,4.8e-4 4.17e-4,9.1e-4 5e-4,8.6e-4 c -3.21741,5.69672 -3.41783,12.90095 0.100438,18.96989 l 0.008,0.0138 4.426597,7.66711 1.100426,1.90602 v 0 l 2.583299,-1.4919 -0.53058,-0.91809 2.153305,-1.24437 0.541496,0.9129 1.314658,-0.75914 1.549776,2.68409 -1.313606,0.75912 0.554194,0.9869 -2.146011,1.239 -0.573284,-0.97696 -2.583961,1.49145 0.0019,0.001 1.100203,1.90559 4.32377,7.48899 -0.04624,0.0273 -2.553255,1.47182 4.974106,8.61542 2.551817,-1.4733 5.031234,8.71435 -2.552281,1.47356 4.973357,8.61407 2.551801,-1.47329 0.04774,-0.0269 4.326871,7.49436 1.116209,1.92333 v 0 l 2.583298,-1.49189 -0.530577,-0.91809 2.153306,-1.24436 0.541494,0.91289 1.314659,-0.75914 1.549776,2.68409 -1.313608,0.75912 0.554196,0.9869 -2.146011,1.239 -0.573282,-0.97695 -2.583963,1.49144 -3.57e-4,0.001 1.090904,1.8855 4.39379,7.61025 c 0,0 0.02554,0.0502 0.03864,0.0749 1.762869,3.04138 4.237211,5.41158 7.090862,7.02515 1.29714,0.73343 2.6725,1.31045 4.09485,1.72332 0.13407,0.0396 0.26808,0.0818 0.40256,0.11845 0.013,0.002 0.0243,0.006 0.0363,0.009 1.5283,0.41254 3.08419,0.62626 4.63205,0.65177 0.2096,0.003 0.41912,0.004 0.62837,4e-5 l 2.6e-4,4.5e-4 c 6.4862,-0.10686 12.75404,-3.51856 16.22986,-9.54687 0.13571,-0.24306 0.26561,-0.48945 0.39073,-0.73817 l 5.2381,-9.07302 1.10037,-1.90572 1.3e-4,2.8e-4 -2.58368,-1.49126 -0.52979,0.91855 -2.1543,-1.24264 0.51983,-0.9254 -1.31476,-0.75895 1.5496,-2.68419 1.31423,0.75805 0.57758,-0.97339 2.14601,1.239 -0.55943,0.98495 2.58361,1.49206 8.2e-4,-5.8e-4 1.10041,-1.90571 5.60007,-9.69976 2.62378,1.51525 9.97985,-17.28615 -2.62398,-1.51453 5.64997,-9.7858 1.09445,-1.91165 -2.58367,-1.49125 -0.52979,0.91854 -2.15431,-1.24263 0.51985,-0.9254 -1.31477,-0.75895 1.54961,-2.6842 1.31422,0.75806 0.5776,-0.97339 2.14601,1.239 -0.55943,0.98496 2.58361,1.49205 1.10658,-1.90047 5.16724,-8.94979 c 0.1357,-0.21063 0.26716,-0.42314 0.39452,-0.63953 0.0266,-0.04 0.0535,-0.0806 0.0774,-0.12199 0.0512,-0.0889 0.0962,-0.17868 0.14564,-0.26826 0.0712,-0.12926 0.14165,-0.25935 0.2111,-0.38984 0.0699,-0.13306 0.13836,-0.26664 0.20492,-0.40054 0.0819,-0.16404 0.15991,-0.32917 0.23695,-0.49601 0.0522,-0.11318 0.10519,-0.22638 0.15507,-0.34018 0.0779,-0.17773 0.15193,-0.35736 0.22465,-0.53791 0.0453,-0.1129 0.0907,-0.22545 0.13385,-0.33863 0.0705,-0.18555 0.13751,-0.37377 0.20243,-0.56201 0.0368,-0.10669 0.0738,-0.21225 0.1086,-0.31931 0.063,-0.19393 0.12188,-0.38991 0.17872,-0.58653 0.0305,-0.1052 0.0606,-0.20919 0.0892,-0.31468 0.0531,-0.19683 0.10261,-0.39611 0.1497,-0.59543 0.0252,-0.1067 0.0518,-0.21354 0.0752,-0.32028 0.0432,-0.19784 0.0812,-0.39625 0.11817,-0.5963 0.0204,-0.10981 0.0406,-0.22012 0.0589,-0.32999 0.0332,-0.19952 0.0616,-0.40033 0.0887,-0.60194 0.0147,-0.10891 0.0297,-0.21782 0.0422,-0.32691 0.0238,-0.20422 0.0436,-0.40887 0.0608,-0.61509 0.008,-0.10071 0.0159,-0.20228 0.0226,-0.30302 0.0154,-0.22671 0.0269,-0.45393 0.0343,-0.68272 0.002,-0.0682 0.004,-0.1363 0.005,-0.20448 0.003,-0.1416 0.011,-0.28238 0.0109,-0.42456 l -5.7e-4,-0.0444 c -4.6e-4,-0.1166 -0.007,-0.23188 -0.01,-0.34806 -0.0659,-3.2408 -0.93906,-6.28338 -2.42614,-8.93371 l -7.4e-4,3.1e-4 c -3.27205,-5.83055 -9.51719,-9.765331 -16.67816,-9.752591 l -0.0151,-5.2e-4 c -2.50082,8e-5 -5.00106,8.9e-4 -7.5019,8.8e-4 l -3.80224,-4e-5 -2.2006,1e-4 h -1.6e-4 l 3.8e-4,2.983151 1.06037,-4.5e-4 0.001,2.487 -1.06134,0.0125 1.1e-4,1.5181 -3.09938,1e-4 -6.2e-4,-1.51718 -1.13177,-0.0135 v -2.478 l 1.13271,-0.008 3.5e-4,-2.983501 -0.001,-3.3e-4 -2.20035,5.9e-4 -3.7027,-2.5e-4 c -2.50085,1.2e-4 -5.00204,1.3e-4 -7.50291,2.6e-4 l -5.5e-4,-3.00647 -19.96849,-2.4e-4 -9.7e-4,3.00795 -11.299517,5.8e-4 -2.200848,-3.4e-4 z"
       inkscape:connector-curvature="0"
       sodipodi:nodetypes="cccccccccccccccccccccccccccccccccccccccccccccccccccccccccccccccccccccccccccccccccccccccccccccccccccccccccccccccccccccccccccccccccccccccccccccccccccccccccccccccccccccccccccc" />
    <path
       style="opacity:1;fill:none;fill-opacity:1;fill-rule:evenodd;stroke:#ff0000;stroke-width:0.1;stroke-linecap:square;stroke-linejoin:round;stroke-miterlimit:4;stroke-dasharray:none;stroke-dashoffset:0;stroke-opacity:1;paint-order:normal"
       d="m 202.18458,94.344662 v 5.16e-4 c -6.68567,-0.0817 -13.21609,3.359433 -16.78554,9.567372 l -0.008,0.0124 v 5.2e-4 c -1.25035,2.16582 -2.50024,4.3315 -3.75067,6.49728 l -1.90118,3.29282 -1.10019,1.90583 2.58382,1.49138 0.52969,-0.91829 2.15439,1.2423 -0.51987,0.92553 1.31465,0.75912 -1.54926,2.68408 -1.31465,-0.7581 -0.57723,0.97307 -2.14612,-1.23868 0.55966,-0.98496 -2.58382,-1.49189 -0.001,5.1e-4 -1.09967,1.90583 -1.43661,2.4877 -0.41496,0.71882 c -1.2502,2.16566 -2.50048,4.33159 -3.75067,6.49728 -1.2e-4,2e-4 -4e-4,3.1e-4 -5.2e-4,5.2e-4 l -2.60398,-1.50276 -9.9844,17.29301 2.60501,1.5043 -5.2e-4,5.1e-4 -5.64926,9.78596 -1.10019,1.90585 2.58382,1.49137 0.52968,-0.91881 2.15439,1.24282 -0.51986,0.92551 1.31464,0.75862 -1.54977,2.68409 -1.31413,-0.75811 -0.57775,0.97359 -2.1456,-1.23921 0.55914,-0.98493 -2.58331,-1.49191 5.2e-4,0.001 -1.10019,1.90582 -5.55987,9.62991 c 0,0 -0.031,0.0469 -0.046,0.0708 -8e-5,1.1e-4 8e-5,4e-4 0,5e-4 -0.0161,0.028 -0.0313,0.0561 -0.0465,0.0842 -0.0278,0.0516 -0.0554,0.10324 -0.0842,0.15451 -0.10153,0.17984 -0.19949,0.36172 -0.29507,0.54518 -1.1e-4,2.1e-4 -4.1e-4,3.2e-4 -5.2e-4,5.3e-4 -0.0249,0.049 -0.0496,0.0974 -0.0744,0.14623 -1.32622,2.59914 -2.07898,5.54046 -2.07894,8.65839 l 5.2e-4,0.0439 c 0.001,0.41145 0.0147,0.81984 0.0413,1.22473 2e-5,3.4e-4 -2e-5,7.1e-4 0,0.001 0.18649,2.83398 0.99145,5.49841 2.281,7.86 0.10137,0.18556 0.20539,0.36963 0.31264,0.55139 h 5.2e-4 l 5.1e-4,-10e-4 c 0.20781,0.35216 0.42646,0.69736 0.65578,1.03455 2.1e-4,3.2e-4 3e-4,7.1e-4 5.1e-4,0.001 3.43981,5.05727 9.24603,8.37449 15.82229,8.36279 l 0.015,-5e-4 11.05565,-5.3e-4 -5.1e-4,-2.98119 -1.0604,5e-4 -0.001,-2.48666 1.06144,-0.0124 v -1.51826 h 3.09903 l 5.2e-4,1.51723 1.13223,0.0134 v 2.47788 l -1.13275,0.008 -5.1e-4,2.98122 10.84688,-5.3e-4 v 0.002 h 0.003 l 5.2e-4,0.0538 -0.002,2.94452 h 9.94565 v -2.94659 h 10.06295 v 0.003 h 0.002 v 2.94402 h 9.94512 v -2.94659 -0.0553 l 10.39783,-5.2e-4 0.48162,-0.001 v -2.98275 l -1.0604,5e-4 -10e-4,-2.48719 1.06143,-0.0124 -5.3e-4,-1.51826 h 3.09956 l 5.1e-4,1.51723 1.13173,0.0134 v 2.47791 l -1.13224,0.008 -5.2e-4,2.98328 5.2e-4,5.3e-4 2.17869,-0.002 h 8.78755 c 0,0 0.0557,0.003 0.0837,0.004 0.0793,-1.4e-4 0.15807,-0.003 0.23718,-0.004 0.18629,-0.003 0.37213,-0.007 0.55708,-0.015 0.11019,-0.005 0.21997,-0.0105 0.32969,-0.017 0.19474,-0.0117 0.38878,-0.0269 0.58187,-0.0445 0.0791,-0.007 0.15889,-0.012 0.23773,-0.0202 0.25514,-0.0264 0.50811,-0.0593 0.76015,-0.0956 0.0959,-0.0138 0.19137,-0.0292 0.28681,-0.0444 0.18936,-0.0302 0.37788,-0.0634 0.56533,-0.0992 0.0813,-0.0155 0.16301,-0.03 0.24392,-0.0465 0.24776,-0.0507 0.49377,-0.1062 0.73793,-0.1664 0.0856,-0.0211 0.17063,-0.0439 0.2558,-0.0661 0.19626,-0.0513 0.39126,-0.10544 0.58499,-0.16277 0.0661,-0.0196 0.13261,-0.0382 0.19844,-0.0584 0.25207,-0.0776 0.50181,-0.15986 0.7493,-0.24751 0.0559,-0.0198 0.1108,-0.0412 0.16639,-0.0615 0.20265,-0.0739 0.4037,-0.15095 0.60307,-0.23151 0.0683,-0.0276 0.13676,-0.0549 0.20465,-0.0832 0.24556,-0.10257 0.48943,-0.20902 0.72967,-0.32144 0.0191,-0.009 0.0377,-0.0189 0.0568,-0.0279 0.22553,-0.10646 0.4481,-0.21788 0.66871,-0.33279 0.0571,-0.0298 0.1142,-0.0596 0.17103,-0.0899 0.23132,-0.12351 0.46077,-0.25027 0.68627,-0.38293 0.005,-0.003 0.0101,-0.005 0.015,-0.008 5.3e-4,-3.1e-4 0.001,-7.1e-4 0.002,-0.001 0.002,-0.001 0.003,-0.002 0.005,-0.003 0.23461,-0.13843 0.46548,-0.28298 0.6935,-0.43098 0.0338,-0.022 0.0676,-0.044 0.10128,-0.0661 0.225,-0.14809 0.44686,-0.30017 0.66509,-0.45736 0.0266,-0.0191 0.0526,-0.0391 0.079,-0.0584 0.20651,-0.15034 0.41019,-0.30419 0.61032,-0.46249 0.0223,-0.0177 0.0449,-0.035 0.0672,-0.0527 0.21166,-0.16899 0.41902,-0.34327 0.62319,-0.52091 0.0287,-0.0249 0.0573,-0.0498 0.0858,-0.0749 0.20627,-0.18161 0.40944,-0.36634 0.60769,-0.55655 0.10137,-0.0963 0.20432,-0.19132 0.30335,-0.28938 0.008,-0.01 0.0179,-0.0184 0.0263,-0.0274 1.12141,-1.11725 2.08497,-2.35685 2.88097,-3.68451 1.07767,-1.79763 1.84886,-3.75615 2.28978,-5.78932 8e-5,-3.1e-4 -8e-5,-7.1e-4 0,-10e-4 1.6e-4,-6.9e-4 3.7e-4,-0.001 5.1e-4,-0.002 0.13205,-0.60939 0.23431,-1.22545 0.30646,-1.84589 0.0241,-0.20704 0.0447,-0.41476 0.062,-0.6227 0.0173,-0.20794 0.0314,-0.41611 0.0419,-0.62476 0.0315,-0.62595 0.0322,-1.25487 0.002,-1.88413 -0.14285,-2.93653 -0.96909,-5.88351 -2.54195,-8.60414 -0.14267,-0.23908 -0.29057,-0.47474 -0.44339,-0.70744 l -6.33812,-10.97815 -2.58072,1.49088 0.5302,0.91829 -2.15337,1.24436 -0.54105,-0.91311 -1.31463,0.75912 -1.5498,-2.68407 1.31363,-0.75914 -0.55448,-0.987 2.14611,-1.2387 0.57309,0.97668 2.58228,-1.49034 -6.70089,-11.60653 0.002,-0.001 2.62155,-1.51412 -9.97924,-17.28525 -2.62205,1.51412 -5.3e-4,-5.2e-4 -0.002,10e-4 -6.01358,-10.4159 -0.74155,-1.27434 -2.58331,1.49189 0.5302,0.91829 -2.15285,1.24437 -0.54156,-0.91312 -1.31465,0.75913 -1.54978,-2.68408 1.31362,-0.75912 -0.55449,-0.98651 2.14612,-1.2392 0.57309,0.9772 2.58434,-1.49189 -0.75964,-1.32602 -5.50251,-9.5312 c -0.11458,-0.22286 -0.23343,-0.44342 -0.35708,-0.66198 -0.0222,-0.0425 -0.042,-0.0862 -0.0651,-0.12815 -0.0514,-0.0888 -0.10684,-0.17344 -0.15968,-0.26097 -0.0755,-0.12682 -0.15375,-0.25239 -0.23202,-0.37776 -0.0803,-0.12707 -0.16125,-0.25264 -0.24392,-0.37723 -0.10119,-0.15287 -0.20573,-0.30354 -0.3116,-0.45372 -0.0719,-0.10177 -0.14346,-0.20378 -0.21705,-0.30386 -0.11491,-0.15642 -0.23349,-0.31087 -0.35346,-0.46405 -0.075,-0.0957 -0.14981,-0.19078 -0.22634,-0.28474 -0.12538,-0.15396 -0.2539,-0.30595 -0.38448,-0.4563 -0.074,-0.0852 -0.14794,-0.17061 -0.22324,-0.25425 -0.13644,-0.15152 -0.27629,-0.29996 -0.41806,-0.44752 -0.0392,-0.0407 -0.0783,-0.0809 -0.11731,-0.12144 -0.0366,-0.0377 -0.0729,-0.0758 -0.11007,-0.113172 -0.14389,-0.144423 -0.29172,-0.286925 -0.4408,-0.427363 -1.8e-4,-1.67e-4 -3.4e-4,-3.5e-4 -5.2e-4,-5.19e-4 -0.002,-0.0016 -0.003,-0.0031 -0.005,-0.0046 -0.0781,-0.07362 -0.15597,-0.147523 -0.23513,-0.219625 -0.14945,-0.13608 -0.30182,-0.269208 -0.4563,-0.40101 -2.9e-4,-2.44e-4 -7.5e-4,-2.73e-4 -0.001,-5.16e-4 -0.0691,-0.059 -0.13857,-0.117565 -0.20825,-0.175699 -0.0158,-0.01312 -0.0312,-0.02678 -0.047,-0.03979 -1.9e-4,-1.54e-4 -3.3e-4,-3.65e-4 -5.1e-4,-5.19e-4 -0.15601,-0.128394 -0.31561,-0.253103 -0.47646,-0.377237 -1.9e-4,-1.46e-4 -3.3e-4,-3.68e-4 -5.2e-4,-5.16e-4 -0.0117,-0.009 -0.0234,-0.01787 -0.0351,-0.02687 -0.0754,-0.05808 -0.15106,-0.115914 -0.22738,-0.172601 -0.16468,-0.122542 -0.33165,-0.242295 -0.50126,-0.360183 -3.1e-4,-2.17e-4 -7.2e-4,-3.02e-4 -0.001,-5.18e-4 -0.0222,-0.01526 -0.0445,-0.0302 -0.0667,-0.04547 -0.0611,-0.04189 -0.12218,-0.084 -0.18346,-0.125058 -0.18864,-0.126693 -0.37968,-0.250233 -0.57412,-0.371036 -2e-4,-1.25e-4 -3.1e-4,-3.94e-4 -5.2e-4,-5.19e-4 -0.0579,-0.03563 -0.11583,-0.07108 -0.17414,-0.105936 -0.12114,-0.0734 -0.23909,-0.150686 -0.36226,-0.221692 l -5.1e-4,-5.16e-4 -0.0383,-0.02119 c -2e-4,-1.16e-4 -3.1e-4,-3.99e-4 -5.1e-4,-5.16e-4 -0.10088,-0.05761 -0.2041,-0.109545 -0.30593,-0.164848 -3.3e-4,-1.86e-4 -6.9e-4,-3.31e-4 -0.001,-5.16e-4 -0.0201,-0.01104 -0.0404,-0.02108 -0.0605,-0.03204 -0.15748,-0.08597 -0.31554,-0.170584 -0.47439,-0.251666 -0.17909,-0.09142 -0.3588,-0.179851 -0.5395,-0.265099 -1.4e-4,-6.6e-5 -3.8e-4,6.6e-5 -5.2e-4,0 -0.14947,-0.07051 -0.30013,-0.137816 -0.45062,-0.204121 -0.0316,-0.01393 -0.0629,-0.02915 -0.0946,-0.04289 -0.0306,-0.01327 -0.0614,-0.02514 -0.092,-0.03824 -0.29051,-0.124327 -0.58263,-0.24045 -0.87643,-0.349332 -0.0445,-0.0165 -0.0887,-0.0345 -0.13333,-0.05064 -0.18455,-0.06683 -0.36987,-0.1304 -0.55552,-0.191204 -3.6e-4,-1.19e-4 -6.7e-4,-3.99e-4 -0.001,-5.16e-4 -0.18565,-0.06079 -0.37201,-0.118313 -0.55862,-0.173116 -3.7e-4,-1.06e-4 -6.7e-4,-4.11e-4 -0.001,-5.16e-4 -0.18667,-0.05481 -0.3737,-0.106702 -0.5612,-0.155546 -3.3e-4,-8.5e-5 -7.1e-4,8.4e-5 -10e-4,0 -0.0735,-0.01913 -0.14707,-0.03604 -0.22066,-0.05426 -0.26258,-0.06502 -0.52579,-0.124807 -0.78961,-0.178284 -0.04,-0.0081 -0.0799,-0.01748 -0.11989,-0.02532 -1.7e-4,-3.4e-5 -3.5e-4,3.2e-5 -5.2e-4,0 -0.18879,-0.037 -0.37816,-0.07118 -0.56741,-0.102319 -3.3e-4,-5.6e-5 -6.9e-4,5.5e-5 -0.001,0 -0.0491,-0.0081 -0.0982,-0.01454 -0.14728,-0.02222 -0.89902,-0.140607 -1.802,-0.216834 -2.70216,-0.227891 z m -0.25786,57.199098 7.03729,12.18737 -14.07407,5.1e-4 z"
       id="path180-3-9"
       inkscape:connector-curvature="0" />
  </g>
</svg>
